<svg width="100" height="100" viewBox="0 0 100 100" fill="none" xmlns="http://www.w3.org/2000/svg">
<circle cx="50" cy="50" r="50" fill="#FF6100"/>
<path d="M20 37.08H32.52C32.9467 37.08 33.2933 37.2267 33.56 37.52C33.8267 37.8133 33.96 38.2 33.96 38.68V66H29.76C28.8533 66 28.2533 65.8533 27.96 65.56C27.6933 65.2667 27.56 64.6533 27.56 63.72V42.08H21.16C20.3867 42.08 20 41.44 20 40.16V37.08ZM35.56 37.08H41.96C42.7333 37.08 43.12 37.72 43.12 39V42.08H35.56V37.08ZM52.6931 66H48.4931C47.5865 66 46.9865 65.8533 46.6931 65.56C46.4265 65.2667 46.2931 64.6533 46.2931 63.72V39.36C46.2931 38.4267 46.4265 37.8133 46.6931 37.52C46.9865 37.2267 47.5865 37.08 48.4931 37.08H52.6931V66ZM64.8025 66H60.6025C59.6958 66 59.0958 65.8533 58.8025 65.56C58.5358 65.2667 58.4025 64.6533 58.4025 63.72V38.68C58.4025 38.2 58.5358 37.8133 58.8025 37.52C59.0692 37.2267 59.4158 37.08 59.8425 37.08H64.8025V66ZM66.4025 37.08H71.4825C74.0158 37.08 75.6958 37.68 76.5225 38.88C77.3758 40.0533 77.8025 42.4267 77.8025 46C77.8025 48.3733 77.5358 50.2267 77.0025 51.56C76.4958 52.8933 75.8158 53.7867 74.9625 54.24C74.1092 54.6667 72.9492 54.88 71.4825 54.88H66.4025V51.08H69.3625C70.0558 51.08 70.4958 50.9867 70.6825 50.8C70.8958 50.6133 71.0025 50.32 71.0025 49.92V42.08C71.0025 41.6533 70.8958 41.3467 70.6825 41.16C70.4958 40.9733 70.0558 40.88 69.3625 40.88H66.4025V37.08Z" fill="white"/>
</svg>
