<svg width="100" height="100" viewBox="0 0 100 100" fill="none" xmlns="http://www.w3.org/2000/svg">
<circle cx="50" cy="50" r="50" fill="#FF6100"/>
<path d="M38.1523 39.5V47H35.6914C35.5254 46.7852 35.335 46.5654 35.1201 46.3408C34.9053 46.1162 34.666 45.916 34.4023 45.7402C34.1387 45.5547 33.8506 45.4082 33.5381 45.3008C33.2256 45.1836 32.8887 45.125 32.5273 45.125V55.2764L34.4023 55.6426V62H21.2773V55.6426L23.1523 55.2764V45.125C22.791 45.125 22.4541 45.1836 22.1416 45.3008C21.8291 45.4082 21.541 45.5547 21.2773 45.7402C21.0137 45.916 20.7744 46.1162 20.5596 46.3408C20.3447 46.5654 20.1543 46.7852 19.9883 47H17.5273V39.5H38.1523ZM40.1738 39.5H53.2988V45.8574L51.4238 46.2236V55.2764L53.2988 55.6426V62H40.1738V55.6426L42.0488 55.2764V46.2236L40.1738 45.8574V39.5ZM56.2871 39.5H69.0459C70.7061 39.5 72.1465 39.5781 73.3672 39.7344C74.5879 39.8809 75.6279 40.0957 76.4873 40.3789C77.3467 40.6621 78.0449 41.0088 78.582 41.4189C79.1289 41.8291 79.5537 42.2881 79.8564 42.7959C80.1689 43.3037 80.3789 43.8604 80.4863 44.4658C80.6035 45.0713 80.6621 45.7158 80.6621 46.3994C80.6621 47.1025 80.5938 47.7617 80.457 48.377C80.3301 48.9922 80.0908 49.5586 79.7393 50.0762C79.3877 50.584 78.8994 51.043 78.2744 51.4531C77.6592 51.8633 76.8633 52.21 75.8867 52.4932C74.9199 52.7666 73.748 52.9814 72.3711 53.1377C71.0039 53.2842 69.3926 53.3574 67.5371 53.3574V55.2764L69.4121 55.6426V62H56.2871V55.6426L58.1621 55.2764V46.2236L56.2871 45.8574V39.5ZM67.5371 49.3291C68.1035 49.3291 68.6162 49.2998 69.0752 49.2412C69.5439 49.1826 69.9395 49.0605 70.2617 48.875C70.5938 48.6797 70.8477 48.4014 71.0234 48.04C71.1992 47.6787 71.2871 47.1904 71.2871 46.5752C71.2871 45.9795 71.1992 45.5059 71.0234 45.1543C70.8477 44.793 70.5938 44.5195 70.2617 44.334C69.9395 44.1484 69.5439 44.0264 69.0752 43.9678C68.6162 43.9092 68.1035 43.8799 67.5371 43.8799V49.3291Z" fill="white"/>
</svg>
